<svg xmlns="http://www.w3.org/2000/svg" width="64" height="64"><path d="M0 0 C0.66 0 1.32 0 2 0 C2 1.98 2 3.96 2 6 C3.670625 6.185625 3.670625 6.185625 5.375 6.375 C9 7 9 7 11 9 C12.42455074 9.45899081 13.86476366 9.87042543 15.3125 10.25 C20.22362272 11.79213998 22.12973014 13.78429115 25 18 C26.14315747 20.28631494 26.12112732 21.54347406 26.11352539 24.08251953 C26.11344986 24.92324005 26.11337433 25.76396057 26.11329651 26.63015747 C26.10813522 27.53853363 26.10297394 28.44690979 26.09765625 29.3828125 C26.0962413 30.31221649 26.09482635 31.24162048 26.09336853 32.19918823 C26.08776053 35.17449124 26.07520668 38.14971964 26.0625 41.125 C26.05748603 43.13932183 26.05292295 45.15364484 26.04882812 47.16796875 C26.0377885 52.11200802 26.02051849 57.05599135 26 62 C25.34 62 24.68 62 24 62 C23.98018066 60.94611084 23.96036133 59.89222168 23.93994141 58.80639648 C23.86349313 54.87192111 23.77483823 50.93779677 23.68261719 47.00366211 C23.64448871 45.30549076 23.60960854 43.60724308 23.578125 41.90893555 C23.53212178 39.45854533 23.47418849 37.00867333 23.4140625 34.55859375 C23.40251129 33.80726669 23.39096008 33.05593964 23.37905884 32.28184509 C23.20937928 26.13145546 22.72598989 20.80626849 18.3125 16.1875 C14.87402552 13.9168093 11.96931918 12.9923298 8 12 C7.34 11.34 6.68 10.68 6 10 C4.01643517 9.28591666 2.01684563 8.61382258 0 8 C0 5.36 0 2.72 0 0 Z " fill="#149EEE" transform="translate(37,1)"></path><path d="M0 0 C0.66 0 1.32 0 2 0 C2 2.64 2 5.28 2 8 C0.27473958 8.71614583 -1.45052083 9.43229167 -3.17578125 10.1484375 C-5.26533932 11.06806692 -5.26533932 11.06806692 -8 13 C-9.11375 13.2475 -10.2275 13.495 -11.375 13.75 C-16.09441073 15.37738301 -17.25491989 16.88237983 -20 21 C-21.23312669 25.37806628 -21.21727324 29.84542662 -21.31640625 34.36328125 C-21.33718735 35.15526413 -21.35796844 35.94724701 -21.37937927 36.76322937 C-21.44447804 39.27956928 -21.50357423 41.79600872 -21.5625 44.3125 C-21.605723 46.02409861 -21.64933848 47.73568735 -21.69335938 49.44726562 C-21.80011847 53.63140984 -21.90149635 57.81565362 -22 62 C-22.66 62 -23.32 62 -24 62 C-24.09911689 56.12846769 -24.17158611 50.25742587 -24.21972656 44.38525391 C-24.23980169 42.38907382 -24.26706789 40.39295225 -24.30175781 38.39697266 C-24.35045657 35.5223138 -24.37300986 32.6484346 -24.390625 29.7734375 C-24.41127014 28.88570648 -24.43191528 27.99797546 -24.45318604 27.08334351 C-24.45517681 21.54561124 -23.72657089 18.37411957 -20 14 C-16.16668618 11.00001527 -12.61578101 9.43602076 -8 8 C-7.01 7.34 -6.02 6.68 -5 6 C-2.3125 5.875 -2.3125 5.875 0 6 C0 4.02 0 2.04 0 0 Z " fill="#149DEE" transform="translate(25,1)"></path><path d="M0 0 C0.99 0.33 1.98 0.66 3 1 C2.87431641 2.03060547 2.87431641 2.03060547 2.74609375 3.08203125 C2.64425781 3.98308594 2.54242188 4.88414063 2.4375 5.8125 C2.33308594 6.70582031 2.22867188 7.59914063 2.12109375 8.51953125 C1.84341291 11.13375572 1.84341291 11.13375572 3 14 C3.08021999 15.40824893 3.10765977 16.81997231 3.09765625 18.23046875 C3.09443359 19.03291016 3.09121094 19.83535156 3.08789062 20.66210938 C3.07951172 21.49548828 3.07113281 22.32886719 3.0625 23.1875 C3.05798828 24.03248047 3.05347656 24.87746094 3.04882812 25.74804688 C3.03705403 27.83206155 3.0191189 29.91603977 3 32 C2.34 32 1.68 32 1 32 C0.90912109 30.93458984 0.90912109 30.93458984 0.81640625 29.84765625 C0.73261719 28.92855469 0.64882813 28.00945313 0.5625 27.0625 C0.48128906 26.14597656 0.40007813 25.22945312 0.31640625 24.28515625 C0.23955024 22.03840268 0.23955024 22.03840268 -1 21 C-1.33 24.63 -1.66 28.26 -2 32 C-2.66 32 -3.32 32 -4 32 C-4.50497667 20.53983501 -3.56958435 10.94778772 0 0 Z " fill="#149FEE" transform="translate(51,31)"></path><path d="M0 0 C0.66 0 1.32 0 2 0 C5.56958435 10.94778772 6.50497667 20.53983501 6 32 C5.34 32 4.68 32 4 32 C3.67 28.37 3.34 24.74 3 21 C1.33657163 22.66342837 1.63951903 24.7825709 1.4375 27.0625 C1.31181641 28.44115234 1.31181641 28.44115234 1.18359375 29.84765625 C1.12300781 30.55792969 1.06242188 31.26820312 1 32 C0.34 32 -0.32 32 -1 32 C-1.02718316 29.14576808 -1.04692705 26.29179985 -1.0625 23.4375 C-1.07087891 22.63763672 -1.07925781 21.83777344 -1.08789062 21.01367188 C-1.1074052 16.23260162 -0.70584094 11.73921775 0 7 C-0.29714023 4.99430341 -0.62061383 2.99177741 -1 1 C-0.67 0.67 -0.34 0.34 0 0 Z " fill="#149FEE" transform="translate(11,31)"></path><path d="M0 0 C2.64 0 5.28 0 8 0 C8 0.66 8 1.32 8 2 C8.66 2 9.32 2 10 2 C10 2.66 10 3.32 10 4 C9.34 4 8.68 4 8 4 C8 4.66 8 5.32 8 6 C5.36 6 2.72 6 0 6 C0 5.34 0 4.68 0 4 C-0.66 4 -1.32 4 -2 4 C-2 3.34 -2 2.68 -2 2 C-1.34 2 -0.68 2 0 2 C0 1.34 0 0.68 0 0 Z M2 2 C2 2.66 2 3.32 2 4 C3.32 4 4.64 4 6 4 C6 3.34 6 2.68 6 2 C4.68 2 3.36 2 2 2 Z " fill="#159EEE" transform="translate(28,57)"></path><path d="M0 0 C2.64 0 5.28 0 8 0 C8 0.66 8 1.32 8 2 C8.66 2 9.32 2 10 2 C10 2.66 10 3.32 10 4 C9.34 4 8.68 4 8 4 C8 4.66 8 5.32 8 6 C5.36 6 2.72 6 0 6 C0 5.34 0 4.68 0 4 C-0.66 4 -1.32 4 -2 4 C-2 3.34 -2 2.68 -2 2 C-1.34 2 -0.68 2 0 2 C0 1.34 0 0.68 0 0 Z M2 2 C2 2.66 2 3.32 2 4 C3.32 4 4.64 4 6 4 C6 3.34 6 2.68 6 2 C4.68 2 3.36 2 2 2 Z " fill="#159EEE" transform="translate(28,49)"></path><path d="M0 0 C2.64 0 5.28 0 8 0 C8 0.66 8 1.32 8 2 C8.66 2 9.32 2 10 2 C10 2.66 10 3.32 10 4 C9.34 4 8.68 4 8 4 C8 4.66 8 5.32 8 6 C5.36 6 2.72 6 0 6 C0 5.34 0 4.68 0 4 C-0.66 4 -1.32 4 -2 4 C-2 3.34 -2 2.68 -2 2 C-1.34 2 -0.68 2 0 2 C0 1.34 0 0.68 0 0 Z M2 2 C2 2.66 2 3.32 2 4 C3.32 4 4.64 4 6 4 C6 3.34 6 2.68 6 2 C4.68 2 3.36 2 2 2 Z " fill="#159EEE" transform="translate(28,41)"></path><path d="M0 0 C0.94875 0.04125 1.8975 0.0825 2.875 0.125 C3.9375 2 3.9375 2 4.875 4.125 C4.545 4.785 4.215 5.445 3.875 6.125 C1.235 6.125 -1.405 6.125 -4.125 6.125 C-4.75 4.25 -4.75 4.25 -5.125 2.125 C-3.125 0.125 -3.125 0.125 0 0 Z M-1.125 2.125 C-1.125 2.785 -1.125 3.445 -1.125 4.125 C-0.465 4.125 0.195 4.125 0.875 4.125 C0.875 3.465 0.875 2.805 0.875 2.125 C0.215 2.125 -0.445 2.125 -1.125 2.125 Z " fill="#149DED" transform="translate(32.125,32.875)"></path><path d="M0 0 C0.94875 0.04125 1.8975 0.0825 2.875 0.125 C3.9375 2 3.9375 2 4.875 4.125 C4.545 4.785 4.215 5.445 3.875 6.125 C1.235 6.125 -1.405 6.125 -4.125 6.125 C-4.75 4.25 -4.75 4.25 -5.125 2.125 C-3.125 0.125 -3.125 0.125 0 0 Z M-1.125 2.125 C-1.125 2.785 -1.125 3.445 -1.125 4.125 C-0.465 4.125 0.195 4.125 0.875 4.125 C0.875 3.465 0.875 2.805 0.875 2.125 C0.215 2.125 -0.445 2.125 -1.125 2.125 Z " fill="#149DED" transform="translate(32.125,24.875)"></path><path d="M0 0 C0.94875 0.04125 1.8975 0.0825 2.875 0.125 C3.9375 2 3.9375 2 4.875 4.125 C4.545 4.785 4.215 5.445 3.875 6.125 C1.235 6.125 -1.405 6.125 -4.125 6.125 C-4.75 4.25 -4.75 4.25 -5.125 2.125 C-3.125 0.125 -3.125 0.125 0 0 Z M-1.125 2.125 C-1.125 2.785 -1.125 3.445 -1.125 4.125 C-0.465 4.125 0.195 4.125 0.875 4.125 C0.875 3.465 0.875 2.805 0.875 2.125 C0.215 2.125 -0.445 2.125 -1.125 2.125 Z " fill="#149DED" transform="translate(32.125,16.875)"></path><path d="M0 0 C0.94875 0.04125 1.8975 0.0825 2.875 0.125 C3.9375 2 3.9375 2 4.875 4.125 C4.545 4.785 4.215 5.445 3.875 6.125 C1.235 6.125 -1.405 6.125 -4.125 6.125 C-4.75 4.25 -4.75 4.25 -5.125 2.125 C-3.125 0.125 -3.125 0.125 0 0 Z M-1.125 2.125 C-1.125 2.785 -1.125 3.445 -1.125 4.125 C-0.465 4.125 0.195 4.125 0.875 4.125 C0.875 3.465 0.875 2.805 0.875 2.125 C0.215 2.125 -0.445 2.125 -1.125 2.125 Z " fill="#149DED" transform="translate(32.125,8.875)"></path><path d="M0 0 C1.32 0.66 2.64 1.32 4 2 C4 3.32 4 4.64 4 6 C2.68 5.34 1.36 4.68 0 4 C0 2.68 0 1.36 0 0 Z " fill="#159FEF" transform="translate(38,30)"></path><path d="M0 0 C0.99 0.33 1.98 0.66 3 1 C2.34 2.32 1.68 3.64 1 5 C-0.32 5 -1.64 5 -3 5 C-1.125 1.125 -1.125 1.125 0 0 Z " fill="#159FEF" transform="translate(24,30)"></path><path d="M0 0 C0.99 0.33 1.98 0.66 3 1 C2.34 2.32 1.68 3.64 1 5 C-0.32 5 -1.64 5 -3 5 C-1.125 1.125 -1.125 1.125 0 0 Z " fill="#159FEF" transform="translate(40,20)"></path><path d="M0 0 C1.32 0.66 2.64 1.32 4 2 C4 3.32 4 4.64 4 6 C2.68 5.34 1.36 4.68 0 4 C0 2.68 0 1.36 0 0 Z " fill="#159EEF" transform="translate(22,20)"></path><path d="M0 0 C1.65 0 3.3 0 5 0 C5 0.66 5 1.32 5 2 C3.35 2 1.7 2 0 2 C0 1.34 0 0.68 0 0 Z " fill="#159EEE" transform="translate(39,27)"></path><path d="M0 0 C1.65 0 3.3 0 5 0 C5 0.66 5 1.32 5 2 C3.35 2 1.7 2 0 2 C0 1.34 0 0.68 0 0 Z " fill="#159EEE" transform="translate(20,27)"></path></svg>