<svg xmlns="http://www.w3.org/2000/svg" width="512" height="512"><path d="M0 0 C7.17736281 6.78780573 13.45383953 14.44603203 19.6171875 22.14453125 C23.55788526 26.86690841 27.79882703 31.30689216 32.00390625 35.79296875 C35.92423881 39.97634609 39.68004768 44.28464712 43.40380859 48.64306641 C44.47195676 49.89315371 45.54040676 51.14298316 46.60913086 52.39257812 C47.683043 53.64912404 48.75552928 54.90689032 49.82641602 56.16601562 C50.32197998 56.74673828 50.81754395 57.32746094 51.328125 57.92578125 C51.7705957 58.44567627 52.21306641 58.96557129 52.66894531 59.5012207 C54.0565391 61.06366352 55.51724708 62.52821778 57 64 C64.16828052 61.96803067 71.10391698 59.5366744 78.046875 56.83984375 C79.56912689 56.25403282 79.56912689 56.25403282 81.12213135 55.65638733 C84.33276949 54.42022274 87.54147697 53.17914289 90.75 51.9375 C93.97311633 50.69311401 97.19663756 49.44979388 100.42071533 48.207901 C102.41804981 47.43824381 104.41478447 46.66702766 106.41082764 45.89402771 C116.90392169 41.84419324 126.17203391 38.59955557 137.3125 42.5625 C145.15381457 46.14961822 149.92710082 52.04760708 153 60 C155.18443457 67.46348479 154.22834134 75.0122031 151 82 C147.15130811 87.96635112 142.79685473 92.01086787 136.2109375 94.7109375 C135.32699059 95.07573715 135.32699059 95.07573715 134.42518616 95.44790649 C124.17687655 99.62432359 113.7907318 103.46887212 103.4375 107.375 C100.19330248 108.602416 96.94942752 109.83067955 93.70571899 111.05938721 C91.57397377 111.86572618 89.44147026 112.6700634 87.30819702 113.47235107 C82.21555352 115.38962913 77.13699577 117.33267282 72.08251953 119.34863281 C71.14537613 119.71824127 70.20823273 120.08784973 69.24269104 120.46865845 C67.50799572 121.15445754 65.77705198 121.84987067 64.0511322 122.5574646 C55.53718357 125.90287674 46.74572403 127.30668718 38 124 C27.11350042 118.6529207 19.93150144 108.19568036 12.5 98.97265625 C8.98644849 94.7948239 5.26673885 90.82331286 1.51635742 86.8581543 C0.98888916 86.299104 0.4614209 85.74005371 -0.08203125 85.1640625 C-0.54843018 84.67373535 -1.0148291 84.1834082 -1.49536133 83.67822266 C-3 82 -3 82 -4.31755447 79.43142891 C-8.72954705 75.43229968 -13.68144738 76.3402438 -19.42376709 76.41891479 C-20.71194281 76.41675937 -22.00011853 76.41460394 -23.32732987 76.4123832 C-26.90606099 76.407017 -30.48399719 76.43285146 -34.06257486 76.46364903 C-37.9208794 76.49137832 -41.7791849 76.49019187 -45.63757324 76.49237061 C-52.32527419 76.499987 -59.01271215 76.52559952 -65.70030975 76.5630455 C-75.37816405 76.61694359 -85.05590855 76.64039677 -94.73389199 76.65582158 C-110.44669391 76.68141242 -126.15936597 76.72713708 -141.87207031 76.78759766 C-142.81274409 76.7912121 -143.75341787 76.79482653 -144.72259691 76.7985505 C-146.62637472 76.80587458 -148.53015251 76.81320184 -150.43393029 76.82053227 C-151.84963773 76.82598257 -151.84963773 76.82598257 -153.29394531 76.83154297 C-154.23854275 76.83518502 -155.1831402 76.83882706 -156.1563618 76.84257948 C-166.63971057 76.88272224 -177.1230736 76.91809349 -187.60644531 76.95166016 C-189.01392004 76.9561749 -189.01392004 76.9561749 -190.44982859 76.96078084 C-206.09838513 77.01052398 -221.74695466 77.04820342 -237.39555955 77.07891381 C-247.04787465 77.09857154 -256.70001951 77.13009778 -266.35224155 77.17698194 C-272.96804575 77.20856309 -279.5838294 77.22980176 -286.1996958 77.24293815 C-290.01640512 77.25094005 -293.83292855 77.26398732 -297.64955902 77.29032516 C-301.78920384 77.31882437 -305.92855674 77.32403313 -310.06829834 77.32711792 C-311.27180679 77.33926704 -312.47531524 77.35141617 -313.71529365 77.36393344 C-320.89026619 77.34532557 -327.27020434 77.05036419 -333.05859375 72.31640625 C-333.51363281 71.73761719 -333.96867187 71.15882813 -334.4375 70.5625 C-334.91058594 69.98628906 -335.38367188 69.41007812 -335.87109375 68.81640625 C-338.47893427 64.62039988 -338.17490505 59.99992104 -338.203125 55.19921875 C-338.20882507 54.44461868 -338.21452515 53.69001862 -338.22039795 52.91255188 C-338.22982619 51.31809888 -338.23637327 49.72362659 -338.24023438 48.12915039 C-338.24992524 45.70619178 -338.280962 43.28408736 -338.3125 40.86132812 C-338.31903245 39.30729667 -338.32428197 37.75325918 -338.328125 36.19921875 C-338.3404718 35.48231369 -338.3528186 34.76540863 -338.36553955 34.02677917 C-338.34007529 28.19516467 -336.95828478 23.90793493 -333.703125 19.07421875 C-330.0779542 15.61471436 -326.85197756 14.57643399 -321.91714478 13.97817993 C-321.27603622 13.90029916 -320.63492767 13.8224184 -319.97439158 13.74217761 C-308.70505886 12.43443174 -297.38036278 11.59536999 -286.07568359 10.66162109 C-283.36547469 10.43544059 -280.65535872 10.20815469 -277.94523621 9.98094177 C-271.37988456 9.43122313 -264.81420324 8.88554582 -258.24838446 8.3414378 C-252.90836339 7.89886178 -247.56845659 7.4549306 -242.22862625 7.01005936 C-241.08414228 6.91471586 -241.08414228 6.91471586 -239.91653741 6.81744624 C-238.36606583 6.6882795 -236.81559435 6.55911156 -235.26512296 6.42994244 C-220.76408464 5.22206313 -206.2626495 4.01900316 -191.7610857 2.81745143 C-178.51726274 1.71996333 -165.27394576 0.61649825 -152.0308557 -0.4897954 C-138.39931752 -1.6284861 -124.76745261 -2.76318697 -111.13522398 -3.8935827 C-103.49503984 -4.52718147 -95.85499128 -5.1623176 -88.21528244 -5.8016243 C-81.71512294 -6.34552529 -75.21466092 -6.88562513 -68.71378778 -7.42093159 C-65.40255029 -7.69369311 -62.09154284 -7.96870666 -58.78078651 -8.24728203 C-55.18037061 -8.54993443 -51.57946348 -8.84590981 -47.97836304 -9.14028931 C-46.94866909 -9.22841688 -45.91897515 -9.31654445 -44.85807836 -9.40734255 C-28.6932396 -10.70649146 -13.26690508 -10.6334743 0 0 Z " fill="#149EEC" transform="translate(348,310)"></path><path d="M0 0 C6.45378207 5.59190974 12.12577321 11.93015733 17.85400391 18.24365234 C20.83527494 21.50635676 23.86704869 24.72164079 26.89453125 27.94140625 C28.17200575 29.30196058 29.44934929 30.66263789 30.7265625 32.0234375 C31.35771973 32.69584473 31.98887695 33.36825195 32.63916016 34.06103516 C37.3645785 39.10058155 42.07373737 44.15534488 46.78564453 49.20751953 C49.69616776 52.32786928 52.60791412 55.44707727 55.51953125 58.56640625 C56.68620371 59.81640084 57.85287038 61.06640084 59.01953125 62.31640625 C59.59703125 62.93515625 60.17453125 63.55390625 60.76953125 64.19140625 C62.51953125 66.06640625 64.26953125 67.94140625 66.01953125 69.81640625 C66.88602295 70.74477295 66.88602295 70.74477295 67.77001953 71.69189453 C68.935105 72.94022362 70.10014416 74.18859592 71.26513672 75.43701172 C74.79961613 79.224448 78.33570489 83.0103712 81.87353516 86.79467773 C83.04638232 88.05079155 84.21795048 89.30810089 85.38818359 90.56665039 C88.21297045 93.60451556 91.05074006 96.62677948 93.92578125 99.6171875 C102.25745924 108.34354351 107.96261254 115.83977347 107.796875 128.34375 C107.01589808 136.01052344 103.37336622 143.06334556 97.51953125 148.06640625 C89.97248058 153.64527672 81.67082775 154.42736829 72.51953125 153.06640625 C64.98640988 150.83908958 60.2114301 146.41570448 54.89453125 140.81640625 C54.18296875 140.09066406 53.47140625 139.36492187 52.73828125 138.6171875 C48.71387362 134.48221922 44.85127514 130.23282783 41.09814453 125.85058594 C39.47180594 124.01246617 37.77134305 122.28471767 36.01953125 120.56640625 C32.93378655 117.53576413 30.11176665 114.33656235 27.29296875 111.05859375 C24.94475039 108.42072731 22.44391902 105.96211643 19.90234375 103.51171875 C18.51953125 102.06640625 18.51953125 102.06640625 17.51953125 100.06640625 C15.73903381 101.84690369 16.25157306 104.48355447 16.14648438 106.8996582 C16.08972534 108.14797928 16.03296631 109.39630035 15.9744873 110.68244934 C15.94620346 111.35392313 15.91791962 112.02539692 15.88877869 112.7172184 C15.80035824 114.81472201 15.70618394 116.91189622 15.61047363 119.00907898 C15.4081973 123.46546023 15.21355786 127.92215937 15.01953125 132.37890625 C14.79459766 137.53225827 14.5665525 142.68544492 14.33201599 147.83836937 C14.23946451 149.90328769 14.15190466 151.96837873 14.0645752 154.03352356 C14.00781616 155.29130112 13.95105713 156.54907867 13.89257812 157.8449707 C13.84452026 158.95226028 13.7964624 160.05954987 13.74694824 161.20039368 C13.55346745 163.63872677 13.14601991 165.71813762 12.51953125 168.06640625 C0.41927651 169.11399358 -11.68132864 170.15742716 -23.78239346 171.19561768 C-29.40189977 171.67786398 -35.02127732 172.16151877 -40.64038086 172.6484375 C-46.06712386 173.11863444 -51.49417821 173.58507266 -56.92146492 174.0489502 C-58.98792005 174.22622963 -61.05426115 174.40484357 -63.12048149 174.58483887 C-66.02330472 174.8374796 -68.92650389 175.08529301 -71.82983398 175.33203125 C-72.67644592 175.40683716 -73.52305786 175.48164307 -74.39532471 175.55871582 C-79.77644106 176.00962983 -85.0801901 176.13001283 -90.48046875 176.06640625 C-89.85896175 158.68699965 -89.07612927 141.32223176 -88.140625 123.95703125 C-88.077843 122.78476738 -88.015061 121.61250351 -87.95037651 120.40471649 C-87.61958269 114.22867535 -87.28653656 108.05276096 -86.95141602 101.87695312 C-86.60852961 95.55019222 -86.27333375 89.22304763 -85.93982792 82.89578629 C-85.67888437 77.9710626 -85.41237527 73.04665115 -85.14437675 68.12230682 C-85.01835326 65.78947644 -84.89435799 63.45653547 -84.77253914 61.12348175 C-82.48642921 17.47648516 -82.48642921 17.47648516 -65.35546875 0.87890625 C-46.74632644 -15.00385405 -19.06501024 -14.8617009 0 0 Z " fill="#149EEC" transform="translate(194.48046875,126.93359375)"></path><path d="M0 0 C11.61288191 9.04620168 18.80165899 19.58168581 22 34 C23.51136643 51.792431 20.61427879 66.46286546 8.96875 80.4375 C-0.3794788 90.46313669 -11.98652746 96.55086217 -25.6796875 97.3125 C-41.82286756 97.86613864 -54.62537913 94.66352888 -67.25 84.12109375 C-76.79009426 75.17725539 -83.49812897 62.35217366 -84.203125 49.21484375 C-84.52253304 31.91424878 -80.66243778 18.1444067 -68.48046875 5.2890625 C-49.97224365 -11.79096886 -20.83843793 -14.6130012 0 0 Z " fill="#149EEC" transform="translate(447,237)"></path><path d="M0 0 C1.86427467 -0.01064158 1.86427467 -0.01064158 3.76621145 -0.02149814 C7.21376158 -0.03606105 10.65993934 -0.02817837 14.10738909 -0.01077521 C17.82592375 0.00258649 21.54435386 -0.01283388 25.26287842 -0.02459717 C32.54616869 -0.04298664 39.82919089 -0.03445308 47.11247284 -0.01650894 C53.03053133 -0.00249046 58.94851699 0.00141149 64.8665905 -0.00195122 C65.70846798 -0.00242866 66.55034545 -0.0029061 67.41773437 -0.00339801 C69.12791179 -0.00442433 70.83808919 -0.00547968 72.54826658 -0.00656378 C87.67386858 -0.01513334 102.79934102 0.00155304 117.9249115 0.03126526 C132.60823507 0.06010842 147.29137205 0.06718413 161.97471619 0.05177307 C177.95837544 0.03502027 193.94194607 0.03096688 209.92560762 0.04848343 C211.62923236 0.05032785 213.3328571 0.05216258 215.03648186 0.0539875 C215.87473359 0.05489959 216.71298533 0.05581168 217.57663863 0.05675141 C223.4894322 0.06236215 229.40218259 0.05904468 235.31497383 0.05244255 C242.5179913 0.04471918 249.72082494 0.051426 256.9238053 0.07661759 C260.60028619 0.08913537 264.27648054 0.09523184 267.95297241 0.08407593 C271.93423949 0.07222309 275.91500965 0.09124876 279.89624023 0.11352539 C281.64791971 0.10116424 281.64791971 0.10116424 283.43498665 0.08855337 C285.03073608 0.1051249 285.03073608 0.1051249 286.65872288 0.12203121 C287.57797348 0.12322269 288.49722407 0.12441418 289.44433075 0.12564176 C292.64360145 0.78448967 293.84940508 2.13170182 295.8846283 4.62818909 C296.4158783 6.62818909 296.4158783 6.62818909 296.3846283 8.62818909 C296.40009705 9.61818909 296.40009705 9.61818909 296.4158783 10.62818909 C295.63278094 13.57632031 294.24634654 14.72767523 291.8846283 16.62818909 C288.95201111 17.08229065 288.95201111 17.08229065 285.5877533 17.01881409 C284.38247986 17.00592346 283.17720642 16.99303284 281.93540955 16.97975159 C280.05402283 16.92947815 280.05402283 16.92947815 278.1346283 16.87818909 C276.86490173 16.86014221 275.59517517 16.84209534 274.28697205 16.82350159 C271.15209752 16.77636062 268.0187427 16.71056573 264.8846283 16.62818909 C264.89462105 18.11490364 264.89462105 18.11490364 264.90481567 19.63165283 C264.96564565 28.97481174 265.01061 38.31793044 265.04006481 47.66124249 C265.05571694 52.46468043 265.07694699 57.26795843 265.11094666 62.07130432 C265.14355619 66.70729964 265.16148472 71.34314116 265.16926003 75.97924232 C265.17480066 77.7474745 265.18562021 79.51569831 265.20181847 81.28386497 C265.22361408 83.76169868 265.22659436 86.2388979 265.22520447 88.71681213 C265.24138321 89.81193619 265.24138321 89.81193619 265.25788879 90.92918396 C265.23111605 95.34374502 264.61890554 98.13194901 261.8846283 101.62818909 C258.8846283 103.62818909 258.8846283 103.62818909 255.3846283 103.44068909 C252.00700295 102.65659749 250.85148844 102.35993929 248.8846283 99.62818909 C236.51082083 74.88057416 247.8846283 44.29686371 247.8846283 16.62818909 C176.2746283 16.62818909 104.6646283 16.62818909 30.8846283 16.62818909 C30.8846283 43.68818909 30.8846283 70.74818909 30.8846283 98.62818909 C27.8846283 102.62818909 27.8846283 102.62818909 24.5096283 103.56568909 C20.50944897 103.6346577 18.97743696 103.08424303 15.8846283 100.62818909 C14.33704612 97.53302474 14.75502939 94.26962835 14.77110291 90.87379456 C14.77095688 90.07370972 14.77081085 89.27362488 14.7706604 88.44929504 C14.7713585 85.79796156 14.77914608 83.14669784 14.78697205 80.49537659 C14.78883659 78.65977517 14.79026032 76.82417326 14.79125977 74.98857117 C14.79508206 70.15195853 14.80490991 65.31537582 14.81596375 60.47877502 C14.82618404 55.54551091 14.83075871 50.61224198 14.83580017 45.67897034 C14.84653242 35.99536342 14.86360541 26.31177874 14.8846283 16.62818909 C13.64374451 16.65960999 13.64374451 16.65960999 12.37779236 16.69166565 C8.63019459 16.77480528 4.8827908 16.8268444 1.1346283 16.87818909 C-0.16732483 16.91170471 -1.46927795 16.94522034 -2.8106842 16.97975159 C-4.06107483 16.99264221 -5.31146545 17.00553284 -6.5997467 17.01881409 C-7.75184631 17.03976135 -8.90394592 17.06070862 -10.09095764 17.08229065 C-13.77197984 16.52960246 -14.91835172 15.58434736 -17.1153717 12.62818909 C-17.7950592 8.47454329 -17.6756539 6.47380449 -15.33742619 2.94479465 C-10.43374028 -0.58087698 -5.89972009 -0.05990918 0 0 Z " fill="#149EEC" transform="translate(33.11537170410156,401.37181091308594)"></path><path d="M0 0 C10.0009028 9.29045615 16.2987366 20.96064178 17.2578125 34.671875 C17.68705881 48.60587063 13.67735328 59.45183879 5.859375 70.84375 C-4.4701642 81.1732892 -17.32435715 87.63553866 -32.078125 87.90625 C-45.90325345 87.73742211 -57.69164322 82.55522246 -67.62890625 73.1015625 C-77.74105231 62.46256513 -82.11247826 50.3167495 -81.953125 35.65625 C-80.85251336 21.90707079 -74.9593766 9.80673335 -64.9296875 0.28515625 C-46.0374518 -15.28413681 -19.16711831 -15.21199866 0 0 Z " fill="#149EEC" transform="translate(195.953125,18.34375)"></path><path d="M0 0 C2.31542422 1.82903314 4.04501136 3.75891546 6 6 C8.52437686 4.9181242 9.9774606 4.02564829 11.8125 1.9375 C14.85445429 -0.75680237 16.97560167 -1 21 -1 C24.79257469 0.97873462 25.77614017 2.28891584 27.0625 6.375 C26.98527956 10.85378538 25.7652726 12.54340925 23 16 C21.99656297 17.33074863 20.99587436 18.66358239 20 20 C20.51691406 20.4846875 21.03382813 20.969375 21.56640625 21.46875 C26.78895922 26.78328531 26.78895922 26.78328531 27.3828125 30.20703125 C27.09313969 33.32970411 26.353515 35.56490462 24.375 38 C20.89857529 39.46375777 18.74993492 39.57202397 15 39 C12.39685335 37.25275176 10.19010679 35.2367048 8 33 C5.45216422 34.21377584 3.41986249 35.42879729 1.125 37.125 C-2.40709819 39.24425891 -3.9677255 39.77213767 -8 39 C-11.21142855 36.62633542 -12.71584605 35.06557732 -13.75 31.1875 C-12.61127408 26.34791483 -9.4435074 23.46107632 -6 20 C-6.42152344 19.50371094 -6.84304688 19.00742187 -7.27734375 18.49609375 C-10.8383283 14.08047291 -13 10.89437249 -13 5 C-12.21270916 2.35183989 -11.47719891 1.37115471 -9.3125 -0.3125 C-5.78956891 -1.35985789 -3.53872014 -0.97619866 0 0 Z " fill="#149DEC" transform="translate(281,25)"></path><path d="M0 0 C2.32342794 1.82229643 4.04354795 3.7572379 6 6 C8.89699709 4.77434738 10.44603714 3.56410007 12.75 1.3125 C16.52257614 -1.37183302 16.52257614 -1.37183302 20.1875 -1.0625 C24 0 24 0 26 1.6875 C27.3325379 4.76899389 27.46715853 6.66315332 27 10 C25.1875 13.125 25.1875 13.125 23 16 C21.99923586 17.33275988 20.9990837 18.66597993 20 20 C20.5053125 20.50789063 21.010625 21.01578125 21.53125 21.5390625 C26.79104478 27.1119403 26.79104478 27.1119403 27.75 31.1875 C26.71584605 35.06557732 25.21142855 36.62633542 22 39 C19.1875 39.75 19.1875 39.75 16 39 C13.1069991 36.88648759 10.53755634 34.52467534 8 32 C7.25556641 32.63228516 7.25556641 32.63228516 6.49609375 33.27734375 C2.08047291 36.8383283 -1.10562751 39 -7 39 C-9.64816011 38.21270916 -10.62884529 37.47719891 -12.3125 35.3125 C-13.35985789 31.78956891 -12.97619866 29.53872014 -12 26 C-10.17096686 23.68457578 -8.24108454 21.95498864 -6 20 C-7.22539208 17.10361872 -8.46342204 15.51502345 -10.6875 13.1875 C-13 10 -13 10 -13 6.3125 C-12.05060715 3.1676362 -11.60737353 1.87730894 -9 0 C-5.73189331 -1.63405335 -3.48364859 -0.87091215 0 0 Z " fill="#149DEC" transform="translate(339,95)"></path><path d="M0 0 C2.32342794 1.82229643 4.04354795 3.7572379 6 6 C8.89638128 4.77460792 10.48497655 3.53657796 12.8125 1.3125 C16 -1 16 -1 19.6875 -1 C24.46543779 0.44239631 24.46543779 0.44239631 26 3 C27.125 6.1875 27.125 6.1875 27 10 C24.98100896 12.99964383 22.60341279 15.50046403 20 18 C21.30951023 20.85155031 22.44462544 22.48697072 24.625 24.875 C27 28 27 28 27.5625 31.125 C26.8508707 34.7622164 26.04395676 35.89264532 23 38 C19.75 39.1875 19.75 39.1875 16 39 C13.00469413 36.97515225 10.49946477 34.60333863 8 32 C5.10479187 33.32051249 3.56617636 34.41454259 1.1875 36.6875 C-2 39 -2 39 -5.6875 39 C-10.46543779 37.55760369 -10.46543779 37.55760369 -12 35 C-13.125 31.8125 -13.125 31.8125 -13 28 C-10.98100896 25.00035617 -8.60341279 22.49953597 -6 20 C-7.32051249 17.10479187 -8.41454259 15.56617636 -10.6875 13.1875 C-13 10 -13 10 -13 6.3125 C-12.05060715 3.1676362 -11.60737353 1.87730894 -9 0 C-5.73189331 -1.63405335 -3.48364859 -0.87091215 0 0 Z " fill="#149EEC" transform="translate(45,104)"></path></svg>