<svg xmlns="http://www.w3.org/2000/svg" width="512" height="512"><path d="M0 0 C19.03574438 14.54481534 29.00029412 36.77797514 32.72265625 60.01171875 C35.60383363 85.2547615 29.05970561 116.16537404 14.25390625 137.0859375 C10.0386559 142.03668182 6.11461214 146.63173681 -0.6015625 147.421875 C-10.48276633 147.53771561 -19.25212645 145.6605727 -28.74609375 143.0859375 C-25.34653148 150.89765206 -17.78102805 155.04691747 -10.24609375 158.2109375 C-9.41150635 158.57582275 -8.57691895 158.94070801 -7.71704102 159.31665039 C-2.18122869 161.70810951 3.40861656 163.96159726 9.0078125 166.19921875 C65.31691772 188.70507893 65.31691772 188.70507893 76.81494141 214.07592773 C84.78485558 232.66088357 87.86213333 252.8493583 90.37890625 272.7734375 C90.5375415 273.99224609 90.69617676 275.21105469 90.85961914 276.46679688 C94.36580194 305.75438579 94.55404176 335.12340632 94.44952393 364.57427979 C94.43862145 368.4512168 94.43905849 372.32811888 94.43966198 376.20506859 C94.43938742 380.0128576 94.43386348 383.82062485 94.42666054 387.62840652 C94.42353833 389.41016096 94.4215221 391.19191777 94.42076683 392.97367477 C94.41258788 402.15522267 94.29341953 411.3313823 93.9309082 420.50634766 C93.89816315 421.68886392 93.89816315 421.68886392 93.86475658 422.89526939 C93.63241894 427.84929549 92.83413397 431.50570978 89.25390625 435.0859375 C87.328125 435.32421875 87.328125 435.32421875 84.94140625 435.3984375 C84.16152344 435.43582031 83.38164062 435.47320312 82.578125 435.51171875 C79.19339882 434.89165967 78.28464804 433.88155546 76.25390625 431.0859375 C75.67256461 427.80095808 75.76985814 424.5529509 75.83154297 421.22558594 C75.83417145 420.22301758 75.83679993 419.22044922 75.83950806 418.1875 C75.85253186 414.85639308 75.89348625 411.52619407 75.93359375 408.1953125 C75.94615484 405.85631302 75.95662827 403.51730149 75.96511841 401.17828369 C75.99178632 394.98926557 76.04057498 388.80063843 76.0958252 382.61181641 C76.19195266 371.63980601 76.26010212 360.66763193 76.30859375 349.6953125 C76.31673505 347.93040875 76.31673505 347.93040875 76.32504082 346.12985039 C76.39522387 327.69727607 75.95737117 309.44571429 74.25390625 291.0859375 C74.13613831 289.77547455 74.13613831 289.77547455 74.01599121 288.4385376 C73.58640068 283.78589978 73.05562173 279.15593886 72.44140625 274.5234375 C72.35775818 273.87745605 72.27411011 273.23147461 72.18792725 272.56591797 C69.83399256 254.50467988 66.60348711 236.83431212 59.25390625 220.0859375 C58.86589844 219.19648438 58.47789062 218.30703125 58.078125 217.390625 C50.23824078 201.4953271 30.2689024 194.10419032 14.71362305 187.93777466 C12.50051607 187.05979775 10.29367744 186.16743825 8.08789062 185.27124023 C5.15478455 184.08023047 2.22023043 182.89296994 -0.71630859 181.71044922 C-23.80595015 172.40776079 -40.91799437 164.58847562 -51.296875 140.484375 C-55.82634016 128.56741596 -55.82634016 128.56741596 -54.74609375 122.0859375 C-53.24609375 119.5859375 -53.24609375 119.5859375 -50.74609375 118.0859375 C-47.96621096 117.53907531 -45.49400788 117.35602281 -42.74609375 118.0859375 C-38.92254772 121.04702954 -37.60962452 124.35390757 -35.99609375 128.8359375 C-35.568125 130.00640625 -35.14015625 131.176875 -34.69921875 132.3828125 C-34.3846875 133.27484375 -34.07015625 134.166875 -33.74609375 135.0859375 C-33.29234375 134.1371875 -32.83859375 133.1884375 -32.37109375 132.2109375 C-30.74609375 129.0859375 -30.74609375 129.0859375 -28.74609375 127.0859375 C-23.61164974 126.41451021 -18.53175125 127.01776773 -13.49609375 128.0859375 C-12.25859375 128.34310547 -12.25859375 128.34310547 -10.99609375 128.60546875 C-10.25359375 128.76402344 -9.51109375 128.92257813 -8.74609375 129.0859375 C-5.57100573 130.00549353 -5.57100573 130.00549353 -2.74609375 129.0859375 C11.32561624 114.68095017 14.81702111 88.33228816 15.25390625 69.0859375 C14.30517674 48.88590507 6.19122492 29.70763868 -8.74609375 16.0859375 C-21.46419587 5.89302377 -36.8131816 2.97068312 -52.74609375 4.7109375 C-66.46860697 6.50139565 -78.82923071 12.70671148 -87.765625 23.35546875 C-96.18317199 34.96072584 -102.86859408 49.54789396 -102.26171875 64.15625 C-101.09731651 70.77217184 -98.36510274 76.93496554 -95.74609375 83.0859375 C-95.46862305 83.74158691 -95.19115234 84.39723633 -94.90527344 85.07275391 C-93.63781868 88.05796319 -92.35363636 91.03338137 -91.04296875 94 C-85.54783908 107.07576036 -85.76223328 119.96623675 -90.87109375 133.2734375 C-102.94922134 159.74700787 -129.7682968 173.29854871 -153.66503906 187.27490234 C-178.49008636 201.86699433 -200.11561574 216.7841587 -207.74609375 246.0859375 C-216.21999728 280.40907538 -217.8426437 315.48397491 -218.0546875 350.6875 C-218.06167097 351.81896139 -218.06865444 352.95042278 -218.07584953 354.11617088 C-218.1377062 364.73672427 -218.17531533 375.35733352 -218.20239258 385.97802734 C-218.21823869 391.84936374 -218.24837301 397.72048943 -218.28715706 403.59171677 C-218.29877605 405.80926669 -218.30473714 408.026854 -218.30483818 410.24443436 C-218.3050297 413.31764375 -218.32324066 416.39026135 -218.34545898 419.46337891 C-218.33859322 420.82207596 -218.33859322 420.82207596 -218.33158875 422.20822144 C-218.39200684 427.45072069 -218.84995749 431.18980124 -222.74609375 435.0859375 C-224.671875 435.32421875 -224.671875 435.32421875 -227.05859375 435.3984375 C-227.83847656 435.43582031 -228.61835938 435.47320312 -229.421875 435.51171875 C-232.79837238 434.89316713 -233.71296636 433.86657353 -235.74609375 431.0859375 C-236.34413676 427.86442141 -236.2715788 424.67745779 -236.23193359 421.40917969 C-236.23573029 420.42611847 -236.23952698 419.44305725 -236.24343872 418.4302063 C-236.25087132 415.16408771 -236.22938158 411.89885302 -236.20703125 408.6328125 C-236.20464305 406.33864445 -236.2037423 404.04447441 -236.20425415 401.75030518 C-236.20111891 396.91804904 -236.18452938 392.08608798 -236.15771484 387.25390625 C-236.12426239 381.15774669 -236.11625103 375.06191629 -236.11734676 368.96567631 C-236.1113231 233.45470293 -236.1113231 233.45470293 -202.80859375 200.01171875 C-190.67911309 188.26603432 -176.52768225 179.62251584 -161.99609375 171.2109375 C-126.86019407 152.34242087 -126.86019407 152.34242087 -105.74609375 120.0859375 C-105.524375 119.34214844 -105.30265625 118.59835938 -105.07421875 117.83203125 C-102.80340158 106.26260929 -110.59941636 92.89272976 -115.38476562 82.61474609 C-122.42982159 67.24334512 -120.55120547 51.48752278 -114.99853516 36.00097656 C-108.26544547 18.26926708 -96.8164832 3.0199731 -79.74609375 -5.9140625 C-53.8213679 -17.56005643 -23.56705447 -16.42653868 0 0 Z " fill="#149EEC" transform="translate(326.74609375,44.9140625)"></path><path d="M0 0 C1.14662109 0.00193359 1.14662109 0.00193359 2.31640625 0.00390625 C4.4375 0.4375 4.4375 0.4375 6.15234375 1.46484375 C10.37068305 7.93980224 7.95300895 16.79549462 6.91738892 23.91784668 C6.41702194 27.37409202 5.9544879 30.83536335 5.4921875 34.296875 C5.39917862 34.99041077 5.30616974 35.68394653 5.21034241 36.39849854 C4.38439418 42.64910167 3.75915271 48.90393806 3.25 55.1875 C3.17869873 56.05181641 3.10739746 56.91613281 3.03393555 57.80664062 C2.81191283 60.68246573 2.62044803 63.55891342 2.4375 66.4375 C2.30939941 68.40033936 2.30939941 68.40033936 2.17871094 70.40283203 C1.60249836 79.83843566 1.3374317 89.25864152 1.2265625 98.7109375 C1.21221664 99.85953247 1.19787079 101.00812744 1.18309021 102.19152832 C1.12557527 106.9476395 1.07051601 111.70361921 1.03613281 116.45996094 C1.00862892 119.98140746 0.96285819 123.50223038 0.9140625 127.0234375 C0.91080963 128.09733734 0.90755676 129.17123718 0.90420532 130.27767944 C0.80960206 135.98475807 0.68663572 140.18836428 -3.5625 144.4375 C-5.48828125 144.67578125 -5.48828125 144.67578125 -7.875 144.75 C-8.65488281 144.78738281 -9.43476563 144.82476562 -10.23828125 144.86328125 C-13.68252261 144.23231939 -14.52753307 143.32997536 -16.5625 140.4375 C-17.16229517 136.68785155 -17.07361914 132.96536282 -17.0234375 129.17578125 C-17.02342743 128.05002686 -17.02341736 126.92427246 -17.02340698 125.7644043 C-17.01638386 122.09247874 -16.97854609 118.42169176 -16.9375 114.75 C-16.92111428 112.21834588 -16.90516526 109.68668889 -16.88964844 107.1550293 C-16.64557797 76.7083414 -14.45489221 46.63057014 -10.5625 16.4375 C-10.42070312 15.2613916 -10.27890625 14.0852832 -10.1328125 12.87353516 C-9.98585938 11.80796387 -9.83890625 10.74239258 -9.6875 9.64453125 C-9.56632812 8.72776611 -9.44515625 7.81100098 -9.3203125 6.86645508 C-7.83046911 2.09118062 -4.93673817 -0.12529792 0 0 Z " fill="#149EEC" transform="translate(363.5625,335.5625)"></path><path d="M0 0 C2.93051162 2.32436191 3.80154876 4.71262768 4.91015625 8.23046875 C5.25530273 9.32294922 5.60044922 10.41542969 5.95605469 11.54101562 C6.32118164 12.74435547 6.68630859 13.94769531 7.0625 15.1875 C7.2536438 15.81180908 7.4447876 16.43611816 7.64172363 17.0793457 C17.09993427 48.08547237 26.05958649 80.53155372 28 113 C28.08133179 114.27363403 28.08133179 114.27363403 28.16430664 115.57299805 C28.33461499 120.27224682 28.00998179 123.14722331 25 127 C23.43058802 128.56941198 21.85865006 128.2449847 19.6875 128.3125 C18.51767578 128.36857422 18.51767578 128.36857422 17.32421875 128.42578125 C14.09721832 127.83461647 13.06448122 126.51248949 11 124 C10.34985352 121.38818359 10.34985352 121.38818359 10.12890625 118.3984375 C10.03270996 117.28267334 9.93651367 116.16690918 9.83740234 115.01733398 C9.70132568 113.21437866 9.70132568 113.21437866 9.5625 111.375 C6.65865343 80.08133401 -1.01291123 48.90516374 -10.96826172 19.10083008 C-12.67355537 13.84275637 -13.4273665 9.53744874 -13 4 C-10.16519014 -0.93010411 -5.19741822 -1.06245566 0 0 Z " fill="#149EEC" transform="translate(136,352)"></path><path d="M0 0 C3.53219967 1.35275732 4.68424109 2.55793753 6.875 5.625 C8.34559919 10.03679756 8.36942062 13.54733297 7 18 C4.32488122 21.29245389 2.13383914 23.73135119 -2.171875 24.2734375 C-9.99068626 24.58145128 -9.99068626 24.58145128 -13.5625 21.6875 C-16.98288155 17.91631009 -17.29256669 15.024856 -17.21875 9.99609375 C-16.80083973 6.18266249 -14.98407681 3.88161328 -12.19921875 1.38671875 C-8.37520766 -1.02451382 -4.36907023 -0.51067055 0 0 Z " fill="#149EEC" transform="translate(200,308)"></path><path d="M0 0 C3.53219967 1.35275732 4.68424109 2.55793753 6.875 5.625 C8.34559919 10.03679756 8.36942062 13.54733297 7 18 C4.32488122 21.29245389 2.13383914 23.73135119 -2.171875 24.2734375 C-9.99068626 24.58145128 -9.99068626 24.58145128 -13.5625 21.6875 C-16.98288155 17.91631009 -17.29256669 15.024856 -17.21875 9.99609375 C-16.80083973 6.18266249 -14.98407681 3.88161328 -12.19921875 1.38671875 C-8.37520766 -1.02451382 -4.36907023 -0.51067055 0 0 Z " fill="#149EEC" transform="translate(208,252)"></path><path d="M0 0 C2.60710075 2.20600833 3.78279996 3.76621418 4.37890625 7.15234375 C4.5911089 11.26633708 4.34585687 13.44662901 2.125 17 C-1.56805064 20.47581237 -4.59610125 20.40702888 -9.515625 20.3359375 C-12 20 -12 20 -15.0625 18 C-17.46123213 14.28583411 -18.31080679 11.41172973 -18 7 C-16.49717203 2.94236447 -15.61841259 1.41227506 -12 -1 C-7.52768912 -2.49077029 -4.33045099 -1.7321804 0 0 Z " fill="#149EEC" transform="translate(206,364)"></path><path d="M0 0 C3.27522945 2.15475621 3.90229594 3.6641423 5 7.4375 C5 11 5 11 3.5 13.875 C0.25293011 16.6350094 -1.76307962 17 -6 17 C-8.94755732 15.65437601 -10.54277272 14.91445456 -12 12 C-12.49055907 7.66672826 -12.47744439 5.67999656 -9.9375 2.0625 C-6.25937488 -0.52001338 -4.40768137 -0.72125695 0 0 Z " fill="#149EEC" transform="translate(223,215)"></path><path d="M0 0 C2.4375 1.0625 2.4375 1.0625 4 3 C5.10373378 6.97344161 5.41543583 9.08999772 3.6875 12.875 C2 15 2 15 0 16 C-7.0521327 16.56872038 -7.0521327 16.56872038 -10.5 14.5 C-12.62153384 10.96411027 -12.791013 8.02098277 -12 4 C-9.12138907 -0.79768489 -5.11359841 -0.84001617 0 0 Z " fill="#149DEC" transform="translate(215,456)"></path><path d="M0 0 C2.4375 1.0625 2.4375 1.0625 4 3 C5.10373378 6.97344161 5.41543583 9.08999772 3.6875 12.875 C2 15 2 15 0 16 C-7.0521327 16.56872038 -7.0521327 16.56872038 -10.5 14.5 C-12.62153384 10.96411027 -12.791013 8.02098277 -12 4 C-9.12138907 -0.79768489 -5.11359841 -0.84001617 0 0 Z " fill="#149DEC" transform="translate(211,408)"></path><path d="M0 0 C2.4375 1.0625 2.4375 1.0625 4 3 C5.10373378 6.97344161 5.41543583 9.08999772 3.6875 12.875 C2 15 2 15 0 16 C-7.0521327 16.56872038 -7.0521327 16.56872038 -10.5 14.5 C-12.62153384 10.96411027 -12.791013 8.02098277 -12 4 C-9.12138907 -0.79768489 -5.11359841 -0.84001617 0 0 Z " fill="#149DEC" transform="translate(247,184)"></path></svg>